<?xml version="1.0" encoding="utf-8"?>
<!-- Generator: Adobe Illustrator 27.0.0, SVG Export Plug-In . SVG Version: 6.00 Build 0)  -->
<svg version="1.1" id="Layer_1" xmlns="http://www.w3.org/2000/svg" xmlns:xlink="http://www.w3.org/1999/xlink" x="0px" y="0px"
	 viewBox="0 0 274 194" style="enable-background:new 0 0 274 194;" xml:space="preserve">
<style type="text/css">
	.st0{fill:none;stroke:#096EDB;stroke-width:3;stroke-linejoin:round;stroke-miterlimit:10;}
	.st1{display:none;}
	.st2{display:inline;}
	.st3{fill:none;stroke:#FE3F02;stroke-width:3;stroke-linecap:round;stroke-linejoin:round;stroke-miterlimit:10;}
	.st4{fill:#FFFFFF;}
	.st5{fill:#FE3F02;}
	.st6{fill:#CECECE;}
	.st7{display:inline;fill:#FFFFFF;}
	.st8{fill:#878787;}
	.st9{display:inline;fill:#FE3F02;}
	.st10{font-family:'Roboto-Bold';}
	.st11{font-size:38.7419px;}
	.st12{fill:none;stroke:#096EDB;stroke-width:4;stroke-linecap:round;stroke-linejoin:round;stroke-miterlimit:10;}
	.st13{fill:#096EDB;}
	.st14{fill:none;stroke:#096EDB;stroke-width:2;stroke-linecap:round;stroke-linejoin:round;stroke-miterlimit:10;}
</style>
<line class="st0" x1="91.3" y1="72.9" x2="106.5" y2="86.3"/>
<line class="st0" x1="66.1" y1="104.2" x2="97.7" y2="104.1"/>
<line class="st0" x1="183.1" y1="73.3" x2="169.2" y2="86.3"/>
<line class="st0" x1="209.7" y1="104.2" x2="178.1" y2="104.1"/>
<line class="st0" x1="137" y1="81.5" x2="137" y2="46.3"/>
<g id="Layer_1_00000073687190140852630350000007783857434862054302_" class="st1">
	<g class="st2">
		<g>
			<g>
				<line class="st3" x1="66.3" y1="13.7" x2="66.3" y2="98.6"/>
				<path class="st3" d="M80.5,35.2c-4.3,1.5-9.1,2.4-14.2,2.4c-12.4,0-23.1-5-28.4-12.3"/>
				<path class="st3" d="M95.1,24.7c-1.5,2.2-3.6,4.3-6,6"/>
				<path class="st3" d="M80.2,77c-4.2-1.4-8.9-2.3-13.9-2.3c-12.4,0-23.1,5-28.4,12.3"/>
				<path class="st3" d="M94.7,87.1c-1.5-2.1-3.6-4.1-5.9-5.7"/>
				<path class="st3" d="M82.8,83.5c-4,9.3-9.9,15.1-16.6,15.1c-11.1,0-20.2-16.4-21.5-37.5"/>
				<path class="st3" d="M85.8,38.1c1.3,5.5,2.1,11.6,2.1,18.1s-0.7,12.6-2.1,18.1"/>
				<path class="st3" d="M44.8,50.9c1.3-21,10.4-37.2,21.5-37.2c6.6,0,12.6,5.9,16.5,15.1"/>
				<path class="st3" d="M50.9,56.2h57.8c0,23.4-19,42.4-42.4,42.4c-19.9,0-36.5-13.6-41.2-32.1c-0.5-1.8-2.2-3.1-4.1-3.1h-1.7"/>
				<path class="st3" d="M39.6,56.2H23.8c0-23.4,19-42.4,42.4-42.4c19.5,0,35.9,13.1,40.9,31c0.6,2.1,2.6,3.6,4.8,3.6h1.8"/>
			</g>
			<path class="st3" d="M89.2,33.4c0,2.5-2.1,4.6-4.6,4.6S80,36,80,33.4c0-2.5,2.1-4.6,4.6-4.6C87.1,28.8,89.2,30.9,89.2,33.4z"/>
			<path class="st3" d="M49.2,56.2c0,2.5-2.1,4.6-4.6,4.6S40,58.7,40,56.2s2.1-4.6,4.6-4.6C47.2,51.6,49.2,53.6,49.2,56.2z"/>
			<path class="st3" d="M89.2,78.9c0,2.5-2.1,4.6-4.6,4.6S80,81.4,80,78.9s2.1-4.6,4.6-4.6S89.2,76.3,89.2,78.9z"/>
		</g>
		<path class="st3" d="M123,48c0,2.5-2.1,4.6-4.6,4.6s-4.6-2.1-4.6-4.6s2.1-4.6,4.6-4.6S123,45.4,123,48z"/>
		<path class="st3" d="M19.3,63.5c0,2.5-2.1,4.6-4.6,4.6s-4.6-2.1-4.6-4.6s2.1-4.6,4.6-4.6S19.3,60.9,19.3,63.5z"/>
	</g>
	<g class="st2">
		<path class="st4" d="M108.7,176.9c-5,0-9-4-9-9V75c0-5,4-9,9-9h138c5,0,9,4,9,9v92.9c0,5-4,9-9,9H108.7z"/>
		<path class="st5" d="M246.6,68c3.9,0,7,3.1,7,7v92.9c0,3.9-3.1,7-7,7h-138c-3.9,0-7-3.1-7-7V75c0-3.9,3.1-7,7-7H246.6 M246.6,64
			h-138c-6.1,0-11,4.9-11,11v92.9c0,6.1,4.9,11,11,11h138c6.1,0,11-4.9,11-11V75C257.6,68.9,252.7,64,246.6,64L246.6,64z"/>
	</g>
	<g class="st2">
		<path class="st6" d="M253.6,89.4h-152V75c0-3.9,3.1-7,7-7h138c3.9,0,7,3.1,7,7V89.4z"/>
	</g>
	<path class="st7" d="M243,82.6h-92.4c-0.9,0-1.7-0.7-1.7-1.7v-4.6c0-0.9,0.7-1.7,1.7-1.7H243c0.9,0,1.7,0.7,1.7,1.7V81
		C244.6,81.9,243.9,82.6,243,82.6z"/>
	<g class="st2">
		<circle class="st8" cx="136" cy="78.7" r="3.9"/>
	</g>
	<g class="st2">
		<circle class="st8" cx="124.7" cy="78.7" r="3.9"/>
	</g>
	<g class="st2">
		<circle class="st8" cx="113.5" cy="78.7" r="3.9"/>
	</g>
	<text transform="matrix(1 0 0 1 118.3281 140.4824)" class="st9 st10 st11">99.999</text>
</g>
<path class="st12" d="M52.9,107.4"/>
<path class="st12" d="M97.3,126.5"/>
<path class="st12" d="M221.3,107.4"/>
<path class="st12" d="M178.3,125.5"/>
<path class="st12" d="M178.3,70.5"/>
<path class="st12" d="M163.3,83.5"/>
<path class="st12" d="M96.3,70.5"/>
<path class="st12" d="M113.3,83.5"/>
<path class="st12" d="M178.2,94.2c0,7-18,12.7-40.2,12.7s-40.2-5.7-40.2-12.7s18-12.7,40.2-12.7S178.2,87.2,178.2,94.2z"/>
<path class="st12" d="M178.2,94.2v22.1c0,7-18,12.7-40.2,12.7s-40.2-5.7-40.2-12.7V94.2"/>
<path class="st12" d="M178.2,137.7v22.1c0,7-18,12.7-40.2,12.7s-40.2-5.7-40.2-12.7v-22.1"/>
<path class="st12" d="M178.2,115.8v22.1c0,7-18,12.7-40.2,12.7s-40.2-5.7-40.2-12.7v-22.1"/>
<circle class="st13" cx="107.8" cy="113.1" r="2.7"/>
<circle class="st13" cx="107.8" cy="135.6" r="2.7"/>
<circle class="st13" cx="107.8" cy="157.4" r="2.7"/>
<path class="st14" d="M241.8,86.3c0,2.9-7.4,5.2-16.5,5.2s-16.5-2.3-16.5-5.2c0-2.9,7.4-5.2,16.5-5.2
	C234.4,81.1,241.8,83.4,241.8,86.3z"/>
<path class="st14" d="M241.8,86.3v9.1c0,2.9-7.4,5.2-16.5,5.2s-16.5-2.3-16.5-5.2v-9.1"/>
<path class="st14" d="M241.8,104.1v9.1c0,2.9-7.4,5.2-16.5,5.2s-16.5-2.3-16.5-5.2v-9.1"/>
<path class="st14" d="M241.8,95.1v9.1c0,2.9-7.4,5.2-16.5,5.2s-16.5-2.3-16.5-5.2v-9.1"/>
<circle class="st13" cx="212.9" cy="94.4" r="1.5"/>
<circle class="st13" cx="212.9" cy="103.3" r="1.5"/>
<circle class="st13" cx="212.9" cy="112.1" r="1.5"/>
<path class="st14" d="M205.9,41.1c0,2.9-7.4,5.2-16.5,5.2s-16.5-2.3-16.5-5.2s7.4-5.2,16.5-5.2C198.5,35.9,205.9,38.2,205.9,41.1z"
	/>
<path class="st14" d="M205.9,41.1v9.1c0,2.9-7.4,5.2-16.5,5.2s-16.5-2.3-16.5-5.2v-9.1"/>
<path class="st14" d="M205.9,59v9.1c0,2.9-7.4,5.2-16.5,5.2s-16.5-2.3-16.5-5.2V59"/>
<path class="st14" d="M205.9,50v9.1c0,2.9-7.4,5.2-16.5,5.2s-16.5-2.3-16.5-5.2V50"/>
<circle class="st13" cx="177" cy="49.2" r="1.5"/>
<circle class="st13" cx="177" cy="58.1" r="1.5"/>
<circle class="st13" cx="177" cy="67" r="1.5"/>
<path class="st14" d="M33,86.3c0,2.9,7.4,5.2,16.5,5.2S66,89.2,66,86.3c0-2.9-7.4-5.2-16.5-5.2C40.4,81.1,33,83.4,33,86.3z"/>
<path class="st14" d="M33,86.3v9.1c0,2.9,7.4,5.2,16.5,5.2S66,98.3,66,95.4v-9.1"/>
<path class="st14" d="M33,104.1v9.1c0,2.9,7.4,5.2,16.5,5.2s16.5-2.3,16.5-5.2v-9.1"/>
<path class="st14" d="M33,95.1v9.1c0,2.9,7.4,5.2,16.5,5.2s16.5-2.3,16.5-5.2v-9.1"/>
<circle class="st13" cx="38" cy="94.4" r="1.5"/>
<circle class="st13" cx="38" cy="103.3" r="1.5"/>
<circle class="st13" cx="38" cy="112.1" r="1.5"/>
<path class="st14" d="M68.7,41.1c0,2.9,7.4,5.2,16.5,5.2s16.5-2.3,16.5-5.2s-7.4-5.2-16.5-5.2C76.1,35.9,68.7,38.2,68.7,41.1z"/>
<path class="st14" d="M68.7,41.1v9.1c0,2.9,7.4,5.2,16.5,5.2s16.5-2.3,16.5-5.2v-9.1"/>
<path class="st14" d="M68.7,59v9.1c0,2.9,7.4,5.2,16.5,5.2s16.5-2.3,16.5-5.2V59"/>
<path class="st14" d="M68.7,50v9.1c0,2.9,7.4,5.2,16.5,5.2s16.5-2.3,16.5-5.2V50"/>
<circle class="st13" cx="73.6" cy="49.2" r="1.5"/>
<circle class="st13" cx="73.6" cy="58.1" r="1.5"/>
<circle class="st13" cx="73.6" cy="67" r="1.5"/>
<path class="st14" d="M153.5,14.2c0,2.9-7.4,5.2-16.5,5.2s-16.5-2.3-16.5-5.2S127.9,9,137,9S153.5,11.3,153.5,14.2z"/>
<path class="st14" d="M153.5,14.2v9.1c0,2.9-7.4,5.2-16.5,5.2s-16.5-2.3-16.5-5.2v-9.1"/>
<path class="st14" d="M153.5,32.1v9.1c0,2.9-7.4,5.2-16.5,5.2s-16.5-2.3-16.5-5.2v-9.1"/>
<path class="st14" d="M153.5,23.1v9.1c0,2.9-7.4,5.2-16.5,5.2s-16.5-2.3-16.5-5.2v-9.1"/>
<circle class="st13" cx="124.6" cy="22.3" r="1.5"/>
<circle class="st13" cx="124.6" cy="31.2" r="1.5"/>
<circle class="st13" cx="124.6" cy="40.1" r="1.5"/>
</svg>
